HIERARCHY
ROOT Hips
{
	OFFSET -0.001795 -0.223333 0.028219
	CHANNELS 6 Xposition Yposition Zposition Zrotation Yrotation Xrotation 
	JOINT LeftUpLeg
	{
		OFFSET 0.069520 -0.091406 -0.006815
		CHANNELS 3 Zrotation Yrotation Xrotation
		JOINT LeftLeg
		{
			OFFSET 0.034277 -0.375199 -0.004496
			CHANNELS 3 Zrotation Yrotation Xrotation
			JOINT LeftFoot
			{
				OFFSET -0.013596 -0.397961 -0.043693
				CHANNELS 3 Zrotation Yrotation Xrotation
				JOINT LeftToe
				{
					OFFSET 0.026358 -0.055791 0.119288
					CHANNELS 3 Zrotation Yrotation Xrotation
					End Site
					{
						OFFSET 0.000000 0.000000 0.000000
					}
				}
			}
		}
	}
	JOINT RightUpLeg
	{
		OFFSET -0.067670 -0.090522 -0.004320
		CHANNELS 3 Zrotation Yrotation Xrotation
		JOINT RightLeg
		{
			OFFSET -0.038290 -0.382569 -0.008850
			CHANNELS 3 Zrotation Yrotation Xrotation
			JOINT RightFoot
			{
				OFFSET 0.015774 -0.398415 -0.042312
				CHANNELS 3 Zrotation Yrotation Xrotation
				JOINT RightToe
				{
					OFFSET -0.025372 -0.048144 0.123348
					CHANNELS 3 Zrotation Yrotation Xrotation
					End Site
					{
						OFFSET 0.000000 0.000000 0.000000
					}
				}
			}
		}
	}
	JOINT Spine
	{
		OFFSET -0.002533 0.108963 -0.026696
		CHANNELS 3 Zrotation Yrotation Xrotation
		JOINT Spine1
		{
			OFFSET 0.005487 0.135180 0.001092
			CHANNELS 3 Zrotation Yrotation Xrotation
			JOINT Spine2
			{
				OFFSET 0.001457 0.052922 0.025425
				CHANNELS 3 Zrotation Yrotation Xrotation
				JOINT Neck
				{
					OFFSET -0.002778 0.213870 -0.042857
					CHANNELS 3 Zrotation Yrotation Xrotation
					JOINT Head
					{
						OFFSET 0.005152 0.064970 0.051349
						CHANNELS 3 Zrotation Yrotation Xrotation
						End Site
						{
							OFFSET 0.000000 0.000000 0.000000
						}
					}
				}
				JOINT LeftShoulder
				{
					OFFSET 0.078845 0.121749 -0.034090
					CHANNELS 3 Zrotation Yrotation Xrotation
					JOINT LeftArm
					{
						OFFSET 0.090977 0.030469 -0.008868
						CHANNELS 3 Zrotation Yrotation Xrotation
						JOINT LeftForeArm
						{
							OFFSET 0.259612 -0.012772 -0.027456
							CHANNELS 3 Zrotation Yrotation Xrotation
							JOINT LeftHand
							{
								OFFSET 0.249234 0.008986 -0.001171
								CHANNELS 3 Zrotation Yrotation Xrotation
								End Site
								{
									OFFSET 0.000000 0.000000 0.000000
								}
							}
						}
					}
				}
				JOINT RightShoulder
				{
					OFFSET -0.081759 0.118833 -0.038615
					CHANNELS 3 Zrotation Yrotation Xrotation
					JOINT RightArm
					{
						OFFSET -0.096012 0.032551 -0.009143
						CHANNELS 3 Zrotation Yrotation Xrotation
						JOINT RightForeArm
						{
							OFFSET -0.253742 -0.013329 -0.021401
							CHANNELS 3 Zrotation Yrotation Xrotation
							JOINT RightHand
							{
								OFFSET -0.255298 0.007772 -0.005559
								CHANNELS 3 Zrotation Yrotation Xrotation
								End Site
								{
									OFFSET 0.000000 0.000000 0.000000
								}
							}
						}
					}
				}
			}
		}
	}
}
MOTION
Frames: 16
Frame Time: 0.050000
0.000000 0.951524 0.000000 -0.428533 13.396409 -1.592040 3.030049 0.043639 3.135574 0.760055 0.045628 -2.854434 -3.354734 -1.604813 7.720169 0.000000 0.000000 0.000000 -0.906350 0.085752 -0.997182 -3.558886 0.562432 1.705841 0.978860 0.048689 7.611560 0.000000 0.000000 0.000000 2.914956 -0.184649 2.633648 1.123013 -0.333059 -2.532311 -4.515011 2.615804 7.846955 7.908721 -3.974174 -9.946584 0.000000 0.000000 0.000000 -5.291602 -8.280368 1.850789 -60.182120 -3.545990 -6.642475 -10.573911 -29.026473 3.125857 0.000000 0.000000 0.000000 6.071617 0.585520 0.525896 66.895115 -1.092068 -5.927343 7.427310 32.149236 3.929232 0.000000 0.000000 0.000000 
0.000939 0.950253 0.001093 -0.315239 12.371151 -1.689128 2.478584 0.146000 4.294268 1.356420 0.057014 -4.133307 -2.808291 -1.356382 6.642424 0.000000 0.000000 0.000000 -1.766206 0.037333 -0.607013 -2.698781 0.459774 2.091121 1.813454 2.113168 6.553323 0.000000 0.000000 0.000000 3.791521 -0.230324 2.885352 0.093762 0.131996 -2.579324 -4.611695 3.440828 7.834559 7.503586 -3.386645 -11.127038 0.000000 0.000000 0.000000 -4.114768 -7.845540 1.835929 -62.130943 -3.473053 -7.132025 -9.541323 -27.993667 2.747581 0.000000 0.000000 0.000000 5.344897 0.140861 0.317467 68.691303 -2.291902 -6.575156 7.118929 30.865214 3.662505 0.000000 0.000000 0.000000 
0.001649 0.949919 0.001725 -0.205485 11.709417 -1.851015 2.326417 0.157849 4.151146 1.555898 -0.013527 -2.708118 -2.927780 -2.413403 5.373153 0.000000 0.000000 0.000000 -1.562108 0.033684 -0.518600 -2.859789 0.492426 2.298179 2.018953 2.970336 5.341286 0.000000 0.000000 0.000000 3.559007 -0.261827 3.438804 0.396290 0.132563 -4.889569 -4.623627 3.591715 9.967495 7.010137 -2.898835 -11.981591 0.000000 0.000000 0.000000 -2.834716 -7.364860 1.877371 -63.124090 -2.832086 -7.957008 -10.885832 -27.637164 3.078634 0.000000 0.000000 0.000000 4.973874 0.561620 0.497988 69.579632 -2.591715 -7.029840 6.549752 29.424804 3.347739 0.000000 0.000000 0.000000 
0.002588 0.950061 0.002090 -0.101397 10.558597 -1.919098 1.621504 0.229609 4.372343 2.314422 -0.076115 -2.580709 -2.745822 -2.182247 5.321296 0.000000 0.000000 0.000000 -1.873540 0.015168 -0.303877 -2.452064 0.433360 2.338251 2.809473 4.792439 5.102904 0.000000 0.000000 0.000000 3.736780 -0.247741 3.193762 0.309028 0.106102 -4.047861 -4.375612 3.521242 9.737513 7.722937 -3.382548 -12.357104 0.000000 0.000000 0.000000 -1.605014 -6.924445 1.936596 -65.237545 -1.565902 -9.045575 -10.399830 -28.414681 3.102964 0.000000 0.000000 0.000000 2.860270 0.609683 0.358121 71.305859 -2.506544 -6.972661 6.473365 28.133576 3.082063 0.000000 0.000000 0.000000 
0.003533 0.950916 0.001926 -0.022095 9.690040 -1.959165 1.130646 0.274912 4.455702 2.492746 -0.103260 -2.374004 -2.437983 -1.919113 4.888556 0.000000 0.000000 0.000000 -1.650882 0.051087 -0.642628 -3.039530 0.542404 2.817593 2.968321 5.442201 4.368963 0.000000 0.000000 0.000000 3.349832 -0.253303 3.466449 0.716351 -0.031378 -4.960352 -4.218419 3.367869 10.874280 8.137627 -3.741277 -12.443113 0.000000 0.000000 0.000000 -0.153806 -7.025357 2.184728 -66.808657 -1.284168 -9.664528 -10.575206 -28.007628 3.196335 0.000000 0.000000 0.000000 1.981676 0.107421 0.106633 72.392833 -2.548680 -7.218859 7.571366 28.304174 3.376788 0.000000 0.000000 0.000000 
0.004875 0.952217 0.001094 -0.183589 7.889304 -1.861507 1.003679 0.251890 3.789585 3.417858 -0.225760 -1.700933 -1.947610 -1.223247 4.668796 0.000000 0.000000 0.000000 -1.495726 0.125548 -1.374305 -3.694866 0.657834 3.235704 4.243673 7.994309 4.931123 0.000000 0.000000 0.000000 3.280014 -0.247681 3.418849 0.733691 -0.059945 -5.062508 -3.728322 3.256194 11.545072 8.423384 -3.938481 -13.065769 0.000000 0.000000 0.000000 1.635495 -6.259530 2.171206 -68.818126 -1.101232 -10.180855 -10.655440 -27.643156 3.298328 0.000000 0.000000 0.000000 0.853944 0.604033 0.236782 73.092908 -2.304793 -7.368915 7.596907 27.770624 3.252103 0.000000 0.000000 0.000000 
0.006956 0.953174 -0.000514 -0.345822 5.957492 -1.905537 0.983797 0.239895 3.426707 3.515131 -0.308478 -0.725917 -1.610010 -0.944805 4.208868 0.000000 0.000000 0.000000 -1.487546 0.202059 -2.172434 -4.219830 0.769710 3.837961 5.395802 10.351582 5.201057 0.000000 0.000000 0.000000 3.207266 -0.278961 3.909139 0.659540 -0.040328 -5.423593 -3.295739 3.483420 12.470118 9.097323 -4.280208 -14.212846 0.000000 0.000000 0.000000 3.174906 -5.329366 2.047617 -70.357125 -0.759494 -10.711971 -10.988062 -28.542446 3.600172 0.000000 0.000000 0.000000 0.365916 0.370329 0.129876 73.290437 -1.690183 -7.265952 8.265774 28.649524 3.530337 0.000000 0.000000 0.000000 
0.010456 0.953629 -0.002709 -0.640885 2.871065 -1.729532 1.038794 0.220613 2.973599 3.742256 -0.437561 0.581116 -0.648775 0.203730 3.073254 0.000000 0.000000 0.000000 -1.304934 0.380053 -4.066435 -4.787780 0.968305 5.443336 6.733789 12.922250 5.613691 0.000000 0.000000 0.000000 2.956364 -0.309730 4.500538 0.637959 -0.071675 -5.632760 -2.580132 4.164381 12.933670 10.115280 -4.915984 -15.108786 0.000000 0.000000 0.000000 3.894189 -4.751377 1.916292 -71.141220 0.174688 -11.259651 -12.521657 -30.119029 4.333920 0.000000 0.000000 0.000000 -0.108466 0.810752 0.279265 73.030237 -1.724256 -7.601865 8.791255 29.751321 3.778070 0.000000 0.000000 0.000000 
0.015316 0.953301 -0.005639 -0.891232 -0.131262 -1.344871 0.939470 0.174555 2.197743 3.665988 -0.513696 1.617983 0.351008 1.859337 2.557163 0.000000 0.000000 0.000000 -1.276453 0.566354 -6.081334 -5.210771 1.157732 6.932221 7.827856 14.954468 5.974844 0.000000 0.000000 0.000000 2.835810 -0.364439 5.406102 0.658303 -0.123936 -5.760056 -2.419948 4.991801 12.812781 11.593437 -5.712612 -16.358527 0.000000 0.000000 0.000000 4.316068 -3.749484 1.634213 -71.345373 0.726469 -11.426300 -13.810975 -31.818165 5.036117 0.000000 0.000000 0.000000 -0.392099 0.902339 0.311875 72.524295 -1.634208 -7.716107 8.612149 30.880337 3.855039 0.000000 0.000000 0.000000 
0.021536 0.953380 -0.009431 -1.139892 -4.122528 -0.768474 1.107034 0.144855 1.728525 3.129815 -0.512298 2.484971 1.618779 4.075301 1.846763 0.000000 0.000000 0.000000 -1.087468 0.870995 -9.168435 -5.757602 1.429853 8.755024 8.792714 16.937412 6.017964 0.000000 0.000000 0.000000 2.965945 -0.425016 6.297232 0.264709 -0.013068 -6.208531 -2.082549 5.114117 13.108330 12.741575 -6.341745 -17.975117 0.000000 0.000000 0.000000 4.730811 -4.004056 1.643721 -71.390997 1.487557 -11.351324 -16.247018 -33.863023 6.359448 0.000000 0.000000 0.000000 -1.145925 1.197856 0.438543 72.600317 -1.180302 -8.010076 9.672490 32.936143 4.331331 0.000000 0.000000 0.000000 
0.028083 0.953164 -0.013478 -1.303344 -8.650507 0.158237 0.936291 0.096765 1.033700 2.594156 -0.465649 2.872687 2.905946 6.767514 2.380643 0.000000 0.000000 0.000000 -0.846347 1.234755 -12.357482 -5.670658 1.631021 10.626057 9.660699 17.714449 7.077194 0.000000 0.000000 0.000000 2.950015 -0.462678 7.069893 0.175142 -0.053243 -5.829975 -2.040772 5.055387 12.329833 13.470836 -6.947057 -18.313891 0.000000 0.000000 0.000000 4.578731 -3.529262 1.389206 -71.103254 2.612388 -11.205741 -17.375072 -36.484072 7.523243 0.000000 0.000000 0.000000 -2.080480 1.642716 0.664273 72.235638 -1.018356 -8.473404 10.607791 35.101788 4.718122 0.000000 0.000000 0.000000 
0.033595 0.953393 -0.016721 -1.388641 -13.996984 0.840558 0.792470 0.093094 0.869760 2.204581 -0.443359 3.786962 4.236047 9.409095 1.952846 0.000000 0.000000 0.000000 -0.287199 1.743428 -15.806443 -5.368934 1.927877 13.182632 9.030883 17.001347 6.112248 0.000000 0.000000 0.000000 3.396547 -0.541022 8.330609 -0.425131 0.117184 -5.563900 -1.904164 4.047561 11.956059 13.855221 -7.205450 -19.924818 0.000000 0.000000 0.000000 4.231848 -4.513228 1.532191 -70.537579 3.224373 -10.401060 -17.669429 -38.701193 8.553126 0.000000 0.000000 0.000000 -2.560188 1.923657 0.877532 71.592967 -1.127500 -9.497128 13.823593 38.718084 5.944894 0.000000 0.000000 0.000000 
0.036534 0.953497 -0.017138 -1.493930 -20.139463 1.666863 0.325172 0.148183 1.338816 1.593746 -0.322819 3.653360 6.345167 13.672576 4.335549 0.000000 0.000000 0.000000 0.469695 2.436006 -19.290945 -4.559839 2.042631 14.686910 8.355041 14.556178 6.582700 0.000000 0.000000 0.000000 3.467444 -0.552983 9.310343 -0.598950 0.132109 -4.525526 -1.904867 2.806663 10.980968 13.175040 -7.107508 -20.258156 0.000000 0.000000 0.000000 3.916334 -4.273565 1.331541 -69.554832 4.804533 -9.973377 -18.352826 -41.780130 10.068504 0.000000 0.000000 0.000000 -2.572703 2.018403 1.013336 70.242389 -1.200033 -10.341805 18.609519 41.689031 7.526905 0.000000 0.000000 0.000000 
0.035957 0.953074 -0.013503 -1.599859 -26.401950 2.003736 -0.611850 0.282597 2.481510 1.555356 -0.292632 3.717770 8.128471 17.269868 4.765289 0.000000 0.000000 0.000000 0.534732 3.165527 -22.383231 -3.408972 2.249811 16.902070 6.111105 9.414612 5.913111 0.000000 0.000000 0.000000 3.831340 -0.562396 10.395915 -1.385880 0.413826 -4.218622 -1.694568 1.398655 10.918838 12.891720 -7.231882 -21.062840 0.000000 0.000000 0.000000 3.497082 -4.592312 1.360728 -67.955769 6.594702 -9.677549 -20.100528 -44.180350 11.985973 0.000000 0.000000 0.000000 -2.587761 1.397190 0.926749 68.557478 -2.303493 -11.724045 25.793241 43.615832 9.761566 0.000000 0.000000 0.000000 
0.031545 0.950672 -0.005863 -2.017199 -31.536474 2.533087 -0.636982 0.502053 4.055389 0.573836 -0.080866 2.855740 9.929296 20.324343 7.166422 0.000000 0.000000 0.000000 0.198427 3.693900 -24.333744 -1.549528 2.117744 17.872496 4.392938 4.066995 6.702649 0.000000 0.000000 0.000000 4.780203 -0.604815 11.061818 -1.813934 0.640862 -3.065854 -2.190614 -0.544654 9.927951 11.601375 -7.031978 -19.786047 0.000000 0.000000 0.000000 3.446366 -4.495535 1.272034 -67.787362 8.483883 -9.615027 -22.237623 -47.099915 14.358781 0.000000 0.000000 0.000000 -3.166317 0.291602 0.836918 67.685484 -4.724059 -13.820453 34.317543 45.566939 12.628347 0.000000 0.000000 0.000000 
0.022235 0.947739 0.004864 -2.006676 -36.386578 2.464255 -1.414603 0.810704 5.917717 1.137130 -0.162498 2.714693 11.010644 22.352625 8.043700 0.000000 0.000000 0.000000 0.404263 4.353240 -26.139039 -0.701501 2.390993 19.612547 2.419994 -0.974264 6.849160 0.000000 0.000000 0.000000 5.127149 -0.572906 12.267662 -1.977493 0.709502 -2.841969 -2.573470 -2.401877 9.743693 11.019547 -7.066862 -19.661407 0.000000 0.000000 0.000000 3.493983 -4.556922 1.238727 -67.970870 9.313784 -9.065765 -22.799877 -50.624627 16.384314 0.000000 0.000000 0.000000 -2.433878 -1.240570 0.247247 65.018260 -8.340749 -15.665459 43.636370 46.072020 15.350689 0.000000 0.000000 0.000000 
